<?xml version="1.0" encoding="utf-8"?>
<!-- Generator: Adobe Illustrator 27.0.0, SVG Export Plug-In . SVG Version: 6.00 Build 0)  -->
<svg version="1.1" id="Layer_1" xmlns="http://www.w3.org/2000/svg" xmlns:xlink="http://www.w3.org/1999/xlink" x="0px" y="0px"
	 viewBox="0 0 595.3 657" style="enable-background:new 0 0 595.3 657;" xml:space="preserve">
<style type="text/css">
	.st0{fill:#373B49;}
	.st1{fill:#FD6258;}
	.st2{fill:#383B49;}
	.st3{fill:#FA6259;}
	.st4{fill:#EEF7EB;}
	.st5{fill:#EEF7EC;}
	.st6{fill:#AE8D90;}
	.st7{fill:#F1F9EE;}
	.st8{fill:#F1F9ED;}
	.st9{fill:#363A48;}
	.st10{fill:#373B48;}
	.st11{fill:#393D4B;}
	.st12{fill:#383D4A;}
	.st13{fill:#3A3E4B;}
	.st14{fill:#393D4A;}
</style>
<path class="st0" d="M54.9,517.3c-1.1-13.2-0.5-26.3,4.4-38.9c8.6-22.2,28.6-35.3,52.3-34.7c1.4,0,3.4-0.6,4.2-1.7
	c9.5-11.8,21.1-21.3,33.4-29.9c4.5-3.2,5.5-6.5,5.1-11.7c-1.6-18.4-0.8-36.8,5.8-54.1c2.9-7.6,1.8-12.1-3-18.5
	c-36.8-49.3-41.6-102.3-16.2-158c1.4-3,1.2-4.9-0.6-7.6c-23.9-35.9-19.6-88.8,17.3-116.7c40.6-30.7,99.4-18.7,125,25.7
	c1.7,2.9,3.2,3.8,6.6,3.8c11.9-0.3,23.9-0.2,35.8,0c2.7,0,4.3-0.5,5.7-3c28.3-51,97.1-59.4,135.7-15.9
	c26.4,29.7,30.9,70.5,7.3,106.1c-1.8,2.6-2.2,4.6-0.8,7.7c25.5,55.8,20.1,108.6-15.8,158.3c-0.8,1-1.1,3.2-0.5,4.2
	c12.4,23.5,13.7,48.6,11,74.3c-0.3,2.8,0.4,4.4,2.6,6.1c11.9,8.9,23.5,18.1,32.9,29.8c0.7,0.9,2.3,1.5,3.4,1.4
	c27.1-1.8,51,17.4,55.9,46c1.5,9,1.1,18.3,1.5,28.2c-4.1,31.2-18.8,55-44.5,71.9c-13.5,8.9-28.4,12.4-44.6,9.1
	c-8.8-1.8-17.8-3.2-26.7-4.5c-14.1-2-28.1-4.2-40.6-11.8c-1.1-0.7-3.1-0.4-4.6,0c-12.1,3.4-24,7.2-36.1,10.3
	c-29.5,7.8-59.4,9-89.6,4.4c-20.8-3.2-41.1-8.7-61.2-14.8c-1.7-0.5-4.1-0.7-5.4,0.1c-10.9,6.6-22.9,9.1-35.3,10.9
	c-9.5,1.4-19,3.3-28.6,4.4c-7.6,0.9-15.4,2.1-22.9,1.1c-17.1-2.1-30.7-11.4-42.4-23.6C65.6,559.4,57.6,539.5,54.9,517.3
	 M450.6,372.8c-1-9.9-2.8-19.5-7.8-28.6c-1.1,0.9-1.7,1.3-2.2,1.8c-36.8,34.4-80.6,51.4-130.8,52.4c-14.9,0.3-29.7-0.6-44.2-4
	c-9.6-2.2-19.1-5.4-28.3-8.9c-8.9-3.4-17.5-7.4-25.9-11.7c-11.3-5.8-21.7-13-31.2-21.4c-2.5-2.2-4.3-2.1-5.1,1.5
	c-1.1,4.9-2.7,9.6-3.3,14.6c-3.4,27.2,0.9,53.7,9.4,79.4c6.9,20.9,16.8,40.5,28.9,58.9c7.3,11.1,14.2,22.6,24.6,31.3
	c14.2,11.9,30.3,14.4,47.6,8.5c8.8-3,16.2-8.5,16.9-18.3c0.5-8.4-0.6-17.2-2.6-25.5c-3.7-15.6-12.2-29.1-19.8-43.1
	c-6.3-11.5-12.6-23.1-16.1-35.9c-1-3.5-0.2-6.2,2.5-8.5c5.1-4.2,11.5-2.5,14.1,3.6c3.3,7.8,6.4,15.7,10.1,23.3
	c7.3,15.1,15,30,22.5,45c0.3,0.6,0.9,1.2,1.5,2.1c0.8-1.3,1.4-2.2,1.9-3.3c4-8.5,7.9-17,12-25.4c6.5-13.5,13.3-26.9,19.6-40.6
	c2.7-5.9,6.1-8.2,11.4-6.4c5.4,1.8,7.6,6,5,12c-5.3,12-10.8,23.9-16.9,35.6c-7.1,13.7-15.3,26.8-19.4,41.9c-2.2,8.3-3.6,16.7-2,25.1
	c2.7,13.5,13.6,19.6,26.8,20.9c21.3,2.1,38.2-6.4,49.6-24c11.7-18,22.8-36.5,32.6-55.5c11.3-21.9,17.5-45.6,19.2-71
	C450.9,390.3,450.8,382,450.6,372.8 M405.5,49.2C372.2,49.8,352,67.6,342,97.7c-12.1-0.8-23.8-2.2-35.5-2.2
	c-11.7,0-23.4,1.5-35.6,2.3c-3.4-13-10.1-24.6-20.6-33.5c-10.7-9.1-23-14.6-37.1-15c-27.1-0.9-48.1,10.4-60.1,34.5
	c-14.8,29.8-7.8,56.6,15.5,79.7c-1.2,2-2.4,3.9-3.6,5.8c-20.7,34.4-25.5,70.9-11.9,108.8c15.7,43.8,48.2,71.2,90.6,87.6
	c29.5,11.5,60.3,14,91.5,9c42.9-6.9,79.3-25.8,105.7-61c27.5-36.7,34.5-77.3,18.9-120.9c-3.7-10.3-9.3-19.9-14.3-30.3
	c0.1-0.2,0.8-1,1.5-1.7c16-15.6,22.8-34.3,20-56.7C463.4,74.4,436.5,49.8,405.5,49.2 M379.9,562.7c-25.9,7.4-49.6,5.4-68.5-15.5
	c-3.8,3.4-7.4,7.2-11.5,10.1c-23,15.6-57.5,12.2-77.8-7c-10.7-10.1-18.5-22.4-26.2-34.7c-13.1-20.9-25.2-42.4-32.2-66.3
	c-2.1-7.1-4-14.3-6.1-22.3c-8.4,7.5-16.4,14.5-24.6,21.8c23.5,12.5,39.7,30.3,47.8,54.7c8,24,8.9,48-3.3,71.6
	c10.2-1.7,19.8-3.5,27.8-10c2.9-2.4,6.2-2.2,9.8-1.2c16.4,4.8,32.7,9.9,49.3,13.7c25,5.7,50.2,6.7,75.7,2.7
	c21.5-3.4,42.3-9,62.7-16.2c3.9-1.4,7.6-1.4,10.6,1.3c7.9,6.9,17.7,7.8,27.9,10.2c-12.4-24-11.4-48.1-3.4-72.3
	c8.2-24.5,24.6-42.1,47.8-54.4c-7.4-6.5-14.3-12.7-21.5-19c-1.5,5.6-2.7,10.3-4,14.9c-10.3,35.4-29.4,66.2-50.5,95.9
	C402.2,550.8,392.6,558.4,379.9,562.7 M449,533.5c0.2,4.8,0,9.7,0.7,14.5c2.3,15.9,9.2,28.5,25.9,33.3c11.6,3.3,22.6,1,32.7-4.9
	c29.1-17,44.5-53.7,36.6-86.5c-3.9-16.2-14.5-26-31-28.1c-12.6-1.6-23.6,2.7-33.3,10.5C461.3,487.8,450.7,507.9,449,533.5
	 M161.4,567.6c2.2-5.3,5.4-10.4,6.4-15.8c5.9-32.3-5.3-58.4-29.8-79.4c-7.5-6.5-16.3-10.6-26.2-11.2c-18.2-1.1-33.4,10.3-38.2,29
	c-9.8,37.8,13.2,74.8,40.5,88.7C131.3,587.6,149.6,583.1,161.4,567.6z"/>
<path class="st1" d="M269.5,216.6c-4,0.9-8,1.7-11.9,2.8c-21.5,6.1-41.3,15.6-56.9,32.2c-20.4,21.9-21.3,49.8-2.5,73.1
	c11,13.7,25.5,22.7,41.5,29.1c37.2,14.8,75.4,16.5,114.1,6.7c21.3-5.4,40.8-14.4,56.4-30.2c25.4-25.7,24.8-57.3-1.2-82.3
	c-18.4-17.7-41.1-26.5-65.8-32.1c-1.3-5.2-4.8-8.8-9.4-11c-18-8.4-36.3-8.3-54.3,0C274.7,207.1,271,210.8,269.5,216.6 M448.6,116.5
	c3.4-30.9-27.5-53.8-52.9-49c-11.3,2.1-20.3,7.5-25.6,18.1c-2.2,4.4-2,8.4,1.7,11.4c3.9,3.2,8.2,6.2,12.7,8.4
	c11.5,5.7,22.2,12.3,31.5,21.1c3.5,3.3,7.4,6.2,11.5,8.8c5.9,3.8,11.1,2.8,14.7-3.2C444.9,127.6,446.4,122.3,448.6,116.5
	 M169.9,91.8c-5.8,11.3-7.3,22.9-1.8,34.8c5.7,12.4,12.7,14.6,22.8,5.5c13.8-12.3,28.8-22.5,45.4-30.5c1.9-0.9,3.6-2.2,5.2-3.7
	c4-3.7,4.6-7.4,2.2-12.2c-7.2-14.3-20.9-19.6-34.1-18.8C192.3,68,179.2,76.5,169.9,91.8 M395.8,170.1c-5.4-6.4-11.6-8.3-18.5-5.8
	c-6.3,2.2-10.4,8.1-10.5,15c-0.1,7.2,3.7,13,10.3,15.5c6,2.3,12.9,0.6,17.4-4.3C399.5,185,400.1,178.3,395.8,170.1"/>
<path class="st1" d="M440.9,313.7c-26.4,35.2-62.8,54.1-105.7,61c-31.2,5-62,2.5-91.5-9c-42.3-16.5-74.9-43.8-90.6-87.6
	c-13.6-37.9-8.8-74.3,11.9-108.8c1.2-2,2.4-3.9,3.6-5.8c-23.3-23.1-30.3-49.9-15.5-79.7c12-24.1,33-35.4,60.1-34.5
	c14.2,0.5,26.5,6,37.1,15c10.6,9,17.2,20.5,20.6,33.5c12.1-0.9,23.8-2.3,35.5-2.3c11.7,0,23.5,1.4,35.5,2.2
	c10-30.1,30.1-47.9,63.9-48.5c30.6,0.6,57.4,25.2,61.1,54.9c2.8,22.4-4,41.1-20,56.7c-0.7,0.7-1.4,1.5-1.5,1.7
	c5,10.4,10.6,20,14.3,30.3C475.4,236.4,468.4,277,440.9,313.7z"/>
<path class="st2" d="M227.1,149.1c20.6,2.2,36.7,13.3,38.6,26.4c1.8,12.1-11.8,19.2-29.4,15.4c-13.9-3.1-26.5-12.6-29.7-22.5
	C203.2,157.4,210.8,150,227.1,149.1z"/>
<path class="st1" d="M450.6,399.3c-1.3,24.8-7.5,48.5-18.8,70.4c-9.8,19-20.9,37.5-32.6,55.5c-11.4,17.6-28.3,26.1-49.6,24
	c-13.2-1.3-24.1-7.4-26.8-20.9c-1.7-8.4-0.3-16.8,2-25.1c4.1-15.1,12.3-28.2,19.4-41.9c6.1-11.6,11.6-23.6,16.9-35.6
	c2.6-5.9,0.4-10.1-5-12c-5.4-1.8-8.7,0.6-11.4,6.4c-6.3,13.6-13.1,27-19.6,40.6c-4.1,8.4-8,17-12,25.4c-0.5,1-1.2,2-1.9,3.3
	c-0.7-0.9-1.2-1.5-1.5-2.1c-7.5-15-15.2-29.9-22.5-45c-3.7-7.6-6.8-15.5-10.1-23.3c-2.6-6.1-9-7.8-14.1-3.6c-2.7,2.3-3.5,5-2.5,8.5
	c3.6,12.8,9.8,24.3,16.1,35.9c7.6,13.9,16.1,27.5,19.8,43.1c2,8.2,3.2,17,2.6,25.5c-0.6,9.8-8.1,15.3-16.9,18.3
	c-17.3,5.9-33.4,3.5-47.6-8.5c-10.4-8.7-17.3-20.2-24.6-31.3c-12.1-18.4-22-38-28.9-58.9c-8.5-25.7-12.7-52.2-9.4-79.4
	c0.6-4.9,2.2-9.7,3.3-14.6c0.8-3.5,2.5-3.7,5.1-1.5c9.5,8.4,19.9,15.6,31.2,21.4c8.4,4.3,17.1,8.3,25.9,11.7
	c9.2,3.5,18.7,6.6,28.3,8.9c14.5,3.3,29.3,4.3,44.2,4c50.2-1,94-18,130.8-52.4c0.5-0.5,1.1-0.9,2.2-1.8c5,9.1,6.9,18.8,7.8,29.4
	C450.6,382.8,450.6,391,450.6,399.3z"/>
<path class="st3" d="M380.3,562.6c12.4-4.2,22-11.8,29.2-22c21.2-29.7,40.2-60.5,50.5-95.9c1.4-4.6,2.5-9.3,4-14.9
	c7.2,6.3,14.1,12.5,21.5,19c-23.2,12.3-39.6,29.9-47.8,54.4c-8,24.2-9,48.3,3.4,72.3c-10.1-2.4-20-3.3-27.9-10.2
	c-3.1-2.7-6.7-2.7-10.6-1.3c-20.4,7.3-41.2,12.9-62.7,16.2c-25.5,4-50.7,3.1-75.7-2.7c-16.6-3.8-32.9-9-49.3-13.7
	c-3.6-1.1-6.9-1.2-9.8,1.2c-8,6.5-17.5,8.3-27.8,10c12.2-23.6,11.3-47.7,3.3-71.6c-8.1-24.4-24.3-42.2-47.8-54.7
	c8.2-7.3,16.1-14.3,24.6-21.8c2.2,7.9,4,15.1,6.1,22.3c7,23.9,19.1,45.4,32.2,66.3c7.7,12.3,15.5,24.5,26.2,34.7
	c20.3,19.2,54.9,22.5,77.8,7c4.2-2.8,7.7-6.7,11.5-10.1C330.3,568.1,354,570.1,380.3,562.6z"/>
<path class="st4" d="M449,533.1c1.7-25.2,12.3-45.4,31.6-60.9c9.7-7.8,20.7-12.1,33.3-10.5c16.5,2.1,27.1,11.9,31,28.1
	c7.9,32.8-7.5,69.5-36.6,86.5c-10.1,5.9-21.1,8.3-32.7,4.9c-16.7-4.8-23.5-17.4-25.9-33.3C449,543.3,449.2,538.4,449,533.1
	 M496.8,566.2c0.4-0.2,0.9-0.3,1.3-0.5c14.2-6.1,21.5-21.9,16.5-36.5c-3.3-9.5-9.8-15.7-19.8-17.2c-11-1.6-20,2.6-26.4,11.5
	c-7.4,10.3-7.3,24.1-0.2,34C474.2,566.1,485.3,569.6,496.8,566.2 M490.6,481.2c-4.5-2-8.4-0.7-11.5,2.7c-3.4,3.9-4.2,8.6-2.4,13.6
	c1.4,3.9,4.3,6.3,8.3,6.8c4.1,0.5,7.3-1.5,9.6-4.9C498.8,493.2,497.4,486.2,490.6,481.2 M518.7,504.3c1.5-2.4,3.6-4.5,4.5-7.1
	c1.9-5.4-0.5-10.9-5-13.2c-4.4-2.2-9.8-0.7-13.2,3.8c-3.5,4.5-3.5,11.6,0,15.6C508.1,507.1,512.9,507.5,518.7,504.3 M527.4,505.2
	c-2.5,2.1-5.6,3.7-7.4,6.3c-3.4,4.9-1.6,11.5,3.2,14.2c4.3,2.4,9.5,1.6,13.3-2c4.2-3.9,5.6-9.6,3.4-14
	C537.8,505.3,534.6,504,527.4,505.2z"/>
<path class="st5" d="M161.2,567.8c-11.6,15.2-29.9,19.7-47.2,10.9c-27.3-13.9-50.3-50.9-40.5-88.7c4.8-18.7,20.1-30,38.2-29
	c10,0.6,18.7,4.7,26.2,11.2c24.5,21,35.7,47.1,29.8,79.4C166.8,557.2,163.6,562.3,161.2,567.8 M125.8,511.8c-1.5,0.2-3,0.2-4.5,0.6
	c-10,2.9-16.6,9.5-18.6,19.7c-2.1,10.5,0.3,20.3,8.6,27.8c12,10.8,28.3,10.3,37.5-0.9c7.6-9.2,8.8-19.4,3.9-30.1
	C147.7,517.7,139,511.9,125.8,511.8 M136.1,503.5c1.9-2.1,4.3-3.9,5.5-6.3c2.2-4.7,0.9-9.3-2.3-13.1c-2.4-2.9-5.7-4.5-9.7-3.5
	c-6.1,1.5-9.5,8.2-7.8,14.8C123.5,502,129,505.4,136.1,503.5 M115.7,498.9c0.1-1.3,0.5-2.8,0.2-4c-1-5.1-3.1-9.4-8.5-11.3
	c-4.3-1.5-7.9-0.2-10.5,3.1c-2.9,3.7-3.4,8-1.3,12.4c2,4.3,5.1,7.1,10,7.5C110.5,506.8,113.7,504.1,115.7,498.9 M88,526.9
	c5.9,0.5,10.4-2.2,11.5-7.1c1.4-5.9-2.6-12.6-8.8-14.6c-3.8-1.2-7.5-1.2-10.6,1.9c-3,2.9-3.7,6.5-2.6,10.5
	C79.1,522.5,82.4,525.4,88,526.9z"/>
<path class="st6" d="M450.8,399c-0.2-7.9-0.2-16.2-0.2-24.9C450.8,382,450.9,390.3,450.8,399z"/>
<path class="st7" d="M343.4,216.5c24.5,4.9,47.2,13.7,65.6,31.4c26,25,26.6,56.6,1.2,82.3c-15.6,15.8-35.1,24.8-56.4,30.2
	c-38.7,9.8-76.9,8.1-114.1-6.7c-16-6.4-30.4-15.4-41.5-29.1c-18.8-23.3-17.9-51.2,2.5-73.1c15.6-16.6,35.3-26.1,56.9-32.2
	c3.9-1.1,7.9-1.9,12.3-2.5c0.8,5.9,4.3,9.5,8.9,11.7c18.5,9,37.2,8.9,55.7,0.1C339.4,226.3,343,222.4,343.4,216.5"/>
<path class="st8" d="M448.5,116.9c-2.1,5.4-3.6,10.7-6.3,15.3c-3.6,6-8.8,7-14.7,3.2c-4.1-2.6-8-5.5-11.5-8.8
	c-9.3-8.8-20.1-15.4-31.5-21.1c-4.5-2.2-8.8-5.2-12.7-8.4c-3.7-3-3.9-7.1-1.7-11.4c5.4-10.5,14.3-16,25.6-18.1
	C421.1,62.8,452,85.7,448.5,116.9z"/>
<path class="st8" d="M170,91.5c9.1-15,22.3-23.5,39.4-24.6c13.2-0.8,26.9,4.5,34.1,18.8c2.4,4.9,1.8,8.5-2.2,12.2
	c-1.5,1.4-3.3,2.8-5.2,3.7c-16.6,8-31.6,18.1-45.4,30.5c-10.1,9.1-17.1,6.9-22.8-5.5C162.5,114.7,164.1,103.1,170,91.5z"/>
<path class="st9" d="M343.3,216.2c-0.4,6.2-3.9,10.1-8.9,12.5c-18.5,8.8-37.2,8.9-55.7-0.1c-4.6-2.2-8.1-5.8-8.6-11.8
	c0.8-6,4.5-9.7,9.3-11.9c18-8.3,36.2-8.5,54.3,0C338.4,207.1,341.9,210.7,343.3,216.2z"/>
<path class="st2" d="M407.8,168.3c-3.2,9.9-15.8,19.4-29.7,22.5c-17.6,3.9-31.2-3.3-29.4-15.4c1.9-13,18-24.2,38.6-26.4
	C403.8,150,411.4,157.4,407.8,168.3z"/>
<path class="st10" d="M496.5,566.3c-11.2,3.3-22.2-0.2-28.3-8.7c-7.1-9.9-7.2-23.7,0.2-34c6.4-8.9,15.4-13.2,26.4-11.5
	c10,1.5,16.6,7.7,19.8,17.2c5,14.5-2.2,30.3-16.5,36.5C497.7,565.9,497.2,566,496.5,566.3z"/>
<path class="st11" d="M490.9,481.4c6.6,4.9,7.9,11.8,3.7,18c-2.3,3.4-5.5,5.4-9.6,4.9c-4-0.5-6.9-3-8.3-6.8c-1.8-4.9-1-9.7,2.4-13.6
	C482.1,480.5,486,479.2,490.9,481.4z"/>
<path class="st11" d="M518.4,504.5c-5.5,3.1-10.3,2.6-13.5-1c-3.5-4-3.4-11.1,0-15.6c3.5-4.5,8.8-6,13.2-3.8c4.5,2.3,6.9,7.8,5,13.2
	C522.3,499.8,520.2,501.9,518.4,504.5z"/>
<path class="st12" d="M527.7,505c6.8-1,10,0.3,12.3,4.7c2.2,4.3,0.8,10.1-3.4,14c-3.8,3.6-9.1,4.3-13.3,2c-4.8-2.7-6.6-9.2-3.2-14.2
	C521.8,508.9,524.9,507.2,527.7,505z"/>
<path class="st9" d="M126.2,511.8c12.8,0.1,21.5,5.9,26.5,17c4.8,10.7,3.6,20.9-3.9,30.1c-9.2,11.2-25.5,11.7-37.5,0.9
	c-8.2-7.5-10.6-17.2-8.6-27.8c2-10.2,8.6-16.8,18.6-19.7C122.8,512,124.3,512,126.2,511.8z"/>
<path class="st11" d="M135.8,503.6c-6.8,1.8-12.2-1.6-14-8.2c-1.8-6.6,1.7-13.3,7.8-14.8c4-1,7.3,0.6,9.7,3.5
	c3.2,3.8,4.5,8.4,2.3,13.1C140.5,499.6,138,501.4,135.8,503.6z"/>
<path class="st13" d="M115.6,499.2c-1.9,4.9-5,7.6-10.1,7.3c-4.8-0.3-8-3.2-10-7.5c-2.1-4.4-1.6-8.7,1.3-12.4
	c2.6-3.3,6.2-4.6,10.5-3.1c5.4,1.9,7.6,6.1,8.5,11.3C116.1,496.1,115.7,497.5,115.6,499.2z"/>
<path class="st14" d="M87.7,526.8c-5.3-1.4-8.6-4.3-10-9.3c-1.1-4-0.4-7.5,2.6-10.5c3.1-3,6.8-3.1,10.6-1.9c6.2,2,10.2,8.7,8.8,14.6
	C98.4,524.7,94,527.4,87.7,526.8z"/>
<path class="st0" d="M290.7,279.3c-12.4,2.4-20.9,6.8-24.1,14.5c-1.7,4.1,0,6.8,4.9,7.7c5.7,1,10.8-0.9,12.5-5
	c1.5-3.6,5.5-5.4,10.7-6.4c7.8-1.6,15.7-1.7,23.5-0.1c5.8,1.1,10.3,3,11.5,7.2c1,3.4,6.9,5.3,12.2,4.4c4.6-0.8,6.5-3.1,5.2-6.9
	c-3.1-9.3-13.8-13.7-27.7-15.8C310,277.3,300.5,277.4,290.7,279.3z"/>
</svg>
