<?xml version="1.0" encoding="utf-8"?>
<!-- Generator: Adobe Illustrator 27.0.0, SVG Export Plug-In . SVG Version: 6.00 Build 0)  -->
<svg version="1.1" id="Layer_1" xmlns="http://www.w3.org/2000/svg" xmlns:xlink="http://www.w3.org/1999/xlink" x="0px" y="0px"
	 viewBox="0 0 595.3 657" style="enable-background:new 0 0 595.3 657;" xml:space="preserve">
<style type="text/css">
	.st0{fill:#373B49;}
	.st1{fill:#FD6258;}
	.st2{fill:#383B49;}
	.st3{fill:#F1F9EE;}
	.st4{fill:#F1F9ED;}
	.st5{fill:#363A48;}
</style>
<path class="st0" d="M562.5,247C664.6,87,422.6-40.5,326.6,113.7c-18.9-0.3-37.9-0.5-56.8,0c-5.4,0-7.8-1.4-10.5-5.8
	C160.3-45.4-66.7,98.1,33.6,247c2.9,4.1,3.2,7,0.9,11.6c-61.4,115.7-4.1,253.3,111.8,312C378.8,693.5,671,500.2,562.5,247z
	 M510.5,478.7C343.2,696.5-86,514,78.5,249C4.8,190.4,52.3,66.5,149.3,74.4c43.4,1,81.6,34.3,91.5,74.2c38.6-4.1,74.2-4.2,112.8-0.2
	c58.9-163.5,288.5-23.4,164.2,99.1C564.1,321.7,567.4,409.6,510.5,478.7z"/>
<path class="st1" d="M238.6,330.2c-6.3,1.4-12.7,2.6-18.9,4.3c-34.1,9.3-65.5,23.9-90.3,49.2c-32.4,33.5-33.8,76.2-4,111.8
	c17.5,21,40.5,34.7,65.8,44.5c59,22.6,119.6,25.2,181,10.2c33.8-8.3,64.7-22,89.5-46.2c40.3-39.3,39.3-87.6-1.9-125.9
	c-29.2-27.1-65.2-40.5-104.4-49.1c-2.1-8-7.6-13.5-14.9-16.8c-28.6-12.8-57.6-12.7-86.1,0C246.8,315.7,241,321.4,238.6,330.2
	 M522.7,177.2c5.4-47.3-43.6-82.3-83.9-74.9c-17.9,3.2-32.2,11.5-40.6,27.7c-3.5,6.7-3.2,12.8,2.7,17.4c6.2,4.9,13,9.5,20.1,12.8
	c18.2,8.7,35.2,18.8,50,32.3c5.6,5,11.7,9.5,18.2,13.5c9.4,5.8,17.6,4.3,23.3-4.9C516.8,194.1,519.2,186,522.7,177.2 M80.6,139.4
	c-9.2,17.3-11.6,35-2.9,53.2c9,19,20.1,22.3,36.2,8.4c21.9-18.8,45.7-34.4,72-46.6c3-1.4,5.7-3.4,8.2-5.7c6.3-5.7,7.3-11.3,3.5-18.7
	c-11.4-21.9-33.2-30-54.1-28.7C116.1,103,95.3,116,80.6,139.4 M438.9,259.1c-8.6-9.8-18.4-12.7-29.3-8.9
	c-10,3.4-16.5,12.4-16.7,22.9c-0.2,11,5.9,19.9,16.3,23.7c9.5,3.5,20.5,0.9,27.6-6.6C444.8,281.9,445.8,271.7,438.9,259.1"/>
<path class="st1" d="M510.5,478.7C343.2,696.5-86,513.9,78.5,249C4.8,190.4,52.3,66.5,149.3,74.4c43.7,1.2,81.6,34.3,91.5,74.2
	c38.4-4.3,74.3-4.1,112.6-0.2c59.6-163.1,288.1-24.6,164.2,99.1C564,321.7,567.5,409.6,510.5,478.7z"/>
<path class="st2" d="M171.3,227c32.7,3.4,58.2,20.3,61.2,40.4c2.9,18.5-18.7,29.4-46.6,23.6c-22.1-4.7-42-19.3-47.1-34.4
	C133.4,239.7,145.5,228.4,171.3,227z"/>
<path class="st3" d="M355.8,330.1c38.9,7.5,74.9,21,104.1,48c41.2,38.2,42.2,86.6,1.9,125.9c-24.7,24.2-55.7,37.9-89.5,46.2
	c-61.4,15-122,12.4-181-10.2c-25.4-9.8-48.2-23.6-65.8-44.5c-29.8-35.6-28.4-78.3,4-111.8c24.7-25.4,56-39.9,90.3-49.2
	c6.2-1.7,12.5-2.9,19.5-3.8c1.3,9,6.8,14.5,14.1,17.9c29.3,13.8,59,13.6,88.4,0.2C349.5,345.1,355.2,339.1,355.8,330.1"/>
<path class="st4" d="M522.5,177.8c-3.3,8.3-5.7,16.4-10,23.4c-5.7,9.2-14,10.7-23.3,4.9c-6.5-4-12.7-8.4-18.2-13.5
	c-14.8-13.5-31.9-23.6-50-32.3c-7.1-3.4-14-8-20.1-12.8c-5.9-4.6-6.2-10.9-2.7-17.4c8.6-16.1,22.7-24.5,40.6-27.7
	C479.1,95,528.1,130.1,522.5,177.8z"/>
<path class="st4" d="M80.7,138.9c14.4-22.9,35.4-35.9,62.5-37.6c20.9-1.2,42.7,6.9,54.1,28.7c3.8,7.5,2.9,13-3.5,18.7
	c-2.4,2.1-5.2,4.3-8.2,5.7c-26.3,12.2-50.1,27.7-72,46.6c-16,13.9-27.1,10.6-36.2-8.4C68.8,174.4,71.4,156.7,80.7,138.9z"/>
<path class="st5" d="M355.7,329.6c-0.6,9.5-6.2,15.4-14.1,19.1c-29.3,13.5-59,13.6-88.4-0.2c-7.3-3.4-12.9-8.9-13.6-18
	c1.3-9.2,7.1-14.8,14.8-18.2c28.6-12.7,57.4-13,86.1,0C347.9,315.7,353.4,321.2,355.7,329.6z"/>
<path class="st2" d="M458,256.4c-5.1,15.1-25.1,29.7-47.1,34.4c-27.9,6-49.5-5-46.6-23.6c3-19.9,28.6-37,61.2-40.4
	C451.6,228.4,463.7,239.7,458,256.4z"/>
<path class="st0" d="M272.2,426.1c-19.7,3.7-33.2,10.4-38.2,22.2c-2.7,6.3,0,10.4,7.8,11.8c9,1.5,17.1-1.4,19.8-7.6
	c2.4-5.5,8.7-8.3,17-9.8c12.4-2.4,24.9-2.6,37.3-0.2c9.2,1.7,16.3,4.6,18.2,11c1.6,5.2,10.9,8.1,19.4,6.7c7.3-1.2,10.3-4.7,8.2-10.6
	c-4.9-14.2-21.9-21-43.9-24.2C302.8,423.1,287.8,423.2,272.2,426.1z"/>
</svg>
