<?xml version="1.0" standalone="no"?>
<!DOCTYPE svg PUBLIC "-//W3C//DTD SVG 20010904//EN"
 "http://www.w3.org/TR/2001/REC-SVG-20010904/DTD/svg10.dtd">
<svg version="1.0" xmlns="http://www.w3.org/2000/svg"
 width="168.000000pt" height="168.000000pt" viewBox="0 0 168.000000 168.000000"
 preserveAspectRatio="xMidYMid meet">

<g transform="translate(0.000000,168.000000) scale(0.100000,-0.100000)"
fill="#000000" stroke="none">
<path d="M0 840 l0 -840 115 0 115 0 0 630 0 630 418 -2 417 -3 3 -302 2 -303
-120 0 -120 0 0 -115 0 -115 235 0 235 0 0 535 0 535 -535 0 -535 0 0 95 0 95
-115 0 -115 0 0 -840z"/>
<path d="M1500 955 l0 -725 -420 0 -420 0 0 300 0 300 120 0 120 0 0 120 0
120 -235 0 -235 0 0 -535 0 -535 650 0 650 0 0 840 0 840 -115 0 -115 0 0
-725z"/>
</g>
</svg>
