<svg version="1.1" id="Layer_1" xmlns="http://www.w3.org/2000/svg" xmlns:xlink="http://www.w3.org/1999/xlink" x="0px" y="0px"
	 width="100%" viewBox="0 0 173 168" enable-background="new 0 0 173 168" xml:space="preserve">
<path fill="#FCFCFC" opacity="1.000000" stroke="none" 
	d="
M43.000000,169.000000 
	C36.978848,169.000000 30.957695,169.000000 24.568531,168.540710 
	C24.200521,126.796349 24.200521,85.511276 24.200521,44.045853 
	C52.225952,44.045853 79.760727,44.045853 107.110519,44.045853 
	C107.110519,63.962425 107.110519,83.520432 107.110519,103.487679 
	C99.144966,103.487679 91.553398,103.487679 83.851715,103.487679 
	C83.851715,111.801872 83.851715,119.695129 83.851715,127.478355 
	C99.982506,127.478355 115.737251,127.478355 131.470428,127.478355 
	C131.470428,91.267982 131.470428,55.390190 131.470428,18.965336 
	C95.553780,18.965336 60.010536,18.965336 24.000000,18.965336 
	C24.000000,12.613206 24.000000,6.806603 24.000000,1.000000 
	C66.020897,1.000000 108.041786,1.000000 150.432098,1.459484 
	C150.801498,49.806171 150.801498,97.693375 150.801498,145.595566 
	C122.668861,145.595566 95.388695,145.595566 67.806625,145.595566 
	C67.806625,125.669044 67.806625,105.938828 67.806625,85.742569 
	C75.784027,85.742569 83.533127,85.742569 91.190117,85.742569 
	C91.190117,77.526108 91.190117,69.778915 91.190117,61.922928 
	C75.126060,61.922928 59.382053,61.922928 43.166870,61.922928 
	C43.166870,63.968136 43.169418,65.761276 43.166496,67.554398 
	C43.111385,101.369598 43.055626,135.184799 43.000000,169.000000 
z"/>
<path fill="#040404" opacity="1.000000" stroke="none" 
	d="
M23.531263,1.000000 
	C24.000000,6.806603 24.000000,12.613206 24.000000,18.965336 
	C60.010536,18.965336 95.553780,18.965336 131.470428,18.965336 
	C131.470428,55.390190 131.470428,91.267982 131.470428,127.478355 
	C115.737251,127.478355 99.982506,127.478355 83.851715,127.478355 
	C83.851715,119.695129 83.851715,111.801872 83.851715,103.487679 
	C91.553398,103.487679 99.144966,103.487679 107.110519,103.487679 
	C107.110519,83.520432 107.110519,63.962425 107.110519,44.045853 
	C79.760727,44.045853 52.225952,44.045853 24.200521,44.045853 
	C24.200521,85.511276 24.200521,126.796349 24.100262,168.540710 
	C16.349043,169.000000 8.698084,169.000000 1.050469,169.000000 
	C1.053811,112.999977 1.053811,56.999969 1.053811,1.000000 
	C8.425924,1.000000 15.744226,1.000000 23.531263,1.000000 
z"/>
<path fill="#020202" opacity="1.000000" stroke="none" 
	d="
M43.468658,169.000000 
	C43.055626,135.184799 43.111385,101.369598 43.166496,67.554398 
	C43.169418,65.761276 43.166870,63.968136 43.166870,61.922928 
	C59.382053,61.922928 75.126060,61.922928 91.190117,61.922928 
	C91.190117,69.778915 91.190117,77.526108 91.190117,85.742569 
	C83.533127,85.742569 75.784027,85.742569 67.806625,85.742569 
	C67.806625,105.938828 67.806625,125.669044 67.806625,145.595566 
	C95.388695,145.595566 122.668861,145.595566 150.801498,145.595566 
	C150.801498,97.693375 150.801498,49.806171 150.900757,1.459484 
	C158.656235,1.000000 166.312485,1.000000 173.984360,1.000000 
	C173.984360,56.913406 173.984360,112.826820 173.984360,169.000000 
	C130.646118,169.000000 87.291718,169.000000 43.468658,169.000000 
z"/>
</svg>