<?xml version="1.0" standalone="no"?>
<!DOCTYPE svg PUBLIC "-//W3C//DTD SVG 20010904//EN"
 "http://www.w3.org/TR/2001/REC-SVG-20010904/DTD/svg10.dtd">
<svg version="1.0" xmlns="http://www.w3.org/2000/svg"
 width="173.000000pt" height="168.000000pt" viewBox="0 0 173.000000 168.000000"
 preserveAspectRatio="xMidYMid meet">

<g transform="translate(0.000000,168.000000) scale(0.100000,-0.100000)"
fill="#000000" stroke="none">
<path d="M0 840 l0 -840 115 0 115 0 0 625 0 625 418 0 417 0 0 -295 0 -294
-120 -3 -120 -3 -3 -100 c-2 -55 0 -110 3 -122 l5 -23 240 0 240 0 0 545 0
545 -540 0 -540 0 0 90 0 90 -115 0 -115 0 0 -840z"/>
<path d="M1498 958 l-3 -723 -412 -3 -413 -2 0 300 0 300 114 0 c95 0 115 3
120 16 3 9 6 63 6 120 l0 104 -245 0 -245 0 0 -535 0 -535 655 0 655 0 0 840
0 840 -115 0 -115 0 -2 -722z"/>
</g>
</svg>
